<?xml version="1.0" encoding="UTF-8" standalone="no"?>
<!DOCTYPE svg PUBLIC "-//W3C//DTD SVG 1.1//EN" "http://www.w3.org/Graphics/SVG/1.1/DTD/svg11.dtd">
<svg width="100%" height="100%" viewBox="0 0 451 124" version="1.1" xmlns="http://www.w3.org/2000/svg" xmlns:xlink="http://www.w3.org/1999/xlink" xml:space="preserve" xmlns:serif="http://www.serif.com/" style="fill-rule:evenodd;clip-rule:evenodd;stroke-linejoin:round;stroke-miterlimit:2;">
    <g transform="matrix(1,0,0,1,-1143.69,-772.044)">
        <g transform="matrix(0.412543,0,0,0.412543,792.84,645.23)">
            <path d="M850.465,457.015C850.465,415.727 883.987,382.206 925.275,382.206C966.564,382.206 1000.09,415.727 1000.09,457.015C1000.09,498.304 966.564,531.825 925.275,531.825C902.941,531.825 882.88,522.017 869.168,506.477L869.168,597.288C869.168,599.767 868.183,602.144 866.43,603.897C864.677,605.65 862.3,606.635 859.821,606.635L859.812,606.635C857.333,606.635 854.956,605.65 853.203,603.897C851.45,602.144 850.465,599.767 850.465,597.288C850.465,564.547 850.465,457.015 850.465,457.015ZM869.168,457.015C869.168,487.982 894.309,513.123 925.275,513.123C956.242,513.123 981.383,487.982 981.383,457.015C981.383,426.049 956.242,400.908 925.275,400.908C894.309,400.908 869.168,426.049 869.168,457.015Z"/>
        </g>
        <g transform="matrix(0.412543,0,0,0.412543,920.839,645.23)">
            <path d="M925.275,382.206C966.564,382.206 1000.09,415.727 1000.09,457.015C1000.09,498.304 966.564,531.825 925.275,531.825C883.987,531.825 850.465,498.304 850.465,457.015C850.465,415.727 883.987,382.206 925.275,382.206ZM925.275,400.908C956.242,400.908 981.383,426.049 981.383,457.015C981.383,487.982 956.242,513.123 925.275,513.123C894.309,513.123 869.168,487.982 869.168,457.015C869.168,426.049 894.309,400.908 925.275,400.908Z"/>
        </g>
        <g transform="matrix(0.291712,0.291712,-0.291712,0.291712,1107.39,430.532)">
            <path d="M850.609,461.676C850.514,460.134 850.465,458.58 850.465,457.015C850.465,419.374 878.325,388.189 914.531,382.973C917.217,382.615 919.927,383.433 921.966,385.218C924.004,387.003 925.174,389.581 925.174,392.291C925.275,392.41 925.275,392.53 925.275,392.649C925.275,397.158 921.926,400.966 917.454,401.543C890.178,405.267 869.168,428.707 869.168,457.015C869.168,472.267 875.267,486.106 885.156,496.224C885.156,496.224 917.661,528.728 931.933,543.001C935.571,546.639 935.571,552.537 931.933,556.175C931.917,556.192 931.9,556.208 931.883,556.225C928.245,559.863 922.347,559.863 918.709,556.225C904.531,542.048 872.384,509.9 872.377,509.893C872.377,509.893 840.293,477.809 826.108,463.625C824.355,461.872 823.371,459.494 823.371,457.015C823.371,454.536 824.355,452.159 826.108,450.406C826.11,450.404 826.112,450.402 826.114,450.4C829.764,446.75 835.683,446.75 839.333,450.4C844.428,455.495 850.609,461.676 850.609,461.676Z"/>
        </g>
        <g transform="matrix(-0.412543,-5.05219e-17,5.05219e-17,-0.412543,1753.71,1022.31)">
            <path d="M850.465,457.015C850.465,415.727 883.987,382.206 925.275,382.206C966.564,382.206 1000.09,415.727 1000.09,457.015C1000.09,498.304 966.564,531.825 925.275,531.825C902.941,531.825 882.88,522.017 869.168,506.477L869.168,597.288C869.168,599.767 868.183,602.144 866.43,603.897C864.677,605.65 862.3,606.635 859.821,606.635L859.812,606.635C857.333,606.635 854.956,605.65 853.203,603.897C851.45,602.144 850.465,599.767 850.465,597.288C850.465,564.547 850.465,457.015 850.465,457.015ZM869.168,457.015C869.168,487.982 894.309,513.123 925.275,513.123C956.242,513.123 981.383,487.982 981.383,457.015C981.383,426.049 956.242,400.908 925.275,400.908C894.309,400.908 869.168,426.049 869.168,457.015Z" style="fill:rgb(255,165,0);"/>
        </g>
        <g transform="matrix(-0.412543,-5.05219e-17,5.05219e-17,-0.412543,1823.15,1022.31)">
            <path d="M925.275,382.206C966.564,382.206 1000.09,415.727 1000.09,457.015C1000.09,498.304 966.564,531.825 925.275,531.825C883.987,531.825 850.465,498.304 850.465,457.015C850.465,415.727 883.987,382.206 925.275,382.206ZM925.275,400.908C956.242,400.908 981.383,426.049 981.383,457.015C981.383,487.982 956.242,513.123 925.275,513.123C894.309,513.123 869.168,487.982 869.168,457.015C869.168,426.049 894.309,400.908 925.275,400.908Z" style="fill:rgb(255,165,0);"/>
        </g>
        <g transform="matrix(2.5261e-17,-0.412543,0.237369,1.45347e-17,1371.53,1153.76)">
            <path d="M775.656,457.015C775.656,457.015 883.188,457.015 915.928,457.015C918.407,457.015 920.785,458.727 922.538,461.773C924.29,464.82 925.275,468.952 925.275,473.26C925.275,473.265 925.275,473.27 925.275,473.275C925.275,482.247 921.09,489.52 915.928,489.52C899.968,489.52 869.168,489.52 869.168,489.52L869.168,570.788C869.168,579.76 864.983,587.033 859.821,587.033C859.818,587.033 859.815,587.033 859.812,587.033C854.65,587.033 850.465,579.76 850.465,570.788C850.465,543.051 850.465,489.52 850.465,489.52L775.656,489.52L775.656,489.513C761.288,489.507 746.919,499.021 735.967,518.055C716.034,552.699 714.247,607.013 730.605,645.184C733.431,651.638 733.078,660.729 729.778,666.465C729.849,666.593 729.848,666.595 729.847,666.597C727.918,669.95 725.25,671.694 722.528,671.382C719.805,671.07 717.293,668.732 715.634,664.967C693.773,613.951 696.116,541.348 722.743,495.071C737.344,469.694 756.5,457.009 775.656,457.015Z" style="fill:rgb(255,165,0);"/>
        </g>
        <g transform="matrix(0.357273,0.206271,-0.206271,0.357273,1329.56,479.632)">
            <path d="M962.958,406.108C959.99,409.075 955.412,409.707 951.752,407.654C943.899,403.32 934.867,400.908 925.275,400.908C897.494,400.908 874.402,421.142 869.945,447.664L990.738,447.664C993.217,447.664 995.595,448.648 997.348,450.401C999.101,452.154 1000.09,454.532 1000.09,457.011C1000.09,457.012 1000.09,457.014 1000.09,457.015C1000.09,498.304 966.564,531.825 925.275,531.825C912.316,531.825 900.122,528.523 889.49,522.715C886.99,521.288 885.299,518.777 884.917,515.924C884.534,513.071 885.504,510.203 887.539,508.168C887.493,508.022 887.543,507.972 887.593,507.923C890.56,504.956 895.138,504.324 898.798,506.376C906.651,510.711 915.684,513.123 925.275,513.123C953.056,513.123 976.148,492.889 980.605,466.367L859.812,466.367C857.333,466.367 854.956,465.382 853.203,463.629C851.45,461.877 850.465,459.499 850.464,457.02C850.465,457.019 850.465,457.017 850.465,457.015C850.465,415.727 883.987,382.206 925.275,382.206C938.234,382.206 950.428,385.508 961.061,391.316C963.56,392.743 965.251,395.254 965.634,398.107C966.016,400.959 965.047,403.827 963.012,405.862C963.058,406.008 963.008,406.058 962.958,406.108Z" style="fill:rgb(255,165,0);"/>
        </g>
    </g>
</svg>
